<svg xmlns="http://www.w3.org/2000/svg" xmlns:xlink="http://www.w3.org/1999/xlink" width="2000" zoomAndPan="magnify" viewBox="0 0 1500 1499.999933" height="2000" preserveAspectRatio="xMidYMid meet" version="1.0"><path fill="#000000" d="M 1157.445312 978.929688 C 1160.78125 972.003906 1163.847656 964.960938 1166.648438 957.800781 C 1169.445312 950.640625 1171.96875 943.382812 1174.210938 936.03125 C 1176.457031 928.679688 1178.417969 921.25 1180.097656 913.746094 C 1181.777344 906.246094 1183.167969 898.6875 1184.269531 891.082031 C 1185.371094 883.472656 1186.179688 875.832031 1186.699219 868.160156 C 1187.21875 860.492188 1187.445312 852.8125 1187.378906 845.121094 C 1187.3125 837.433594 1186.953125 829.761719 1186.300781 822.101562 C 1185.648438 814.441406 1184.707031 806.816406 1183.472656 799.226562 C 1182.8125 795.277344 1182.078125 791.34375 1181.261719 787.421875 C 1180.445312 783.503906 1179.550781 779.601562 1178.578125 775.71875 C 1177.605469 771.832031 1176.558594 767.972656 1175.429688 764.128906 C 1174.300781 760.289062 1173.097656 756.46875 1171.816406 752.675781 C 1170.535156 748.882812 1169.179688 745.117188 1167.746094 741.378906 C 1166.316406 737.640625 1164.808594 733.933594 1163.226562 730.253906 C 1161.644531 726.578125 1159.992188 722.933594 1158.261719 719.320312 C 1156.535156 715.707031 1154.734375 712.132812 1152.863281 708.59375 C 1150.992188 705.054688 1149.050781 701.554688 1147.039062 698.09375 C 1145.027344 694.632812 1142.945312 691.214844 1140.796875 687.835938 C 1138.648438 684.460938 1136.429688 681.125 1134.148438 677.839844 C 1131.863281 674.550781 1129.515625 671.308594 1127.101562 668.117188 C 1124.6875 664.921875 1122.210938 661.777344 1119.671875 658.683594 C 1117.128906 655.589844 1114.53125 652.546875 1111.867188 649.558594 C 1109.207031 646.570312 1106.484375 643.632812 1103.703125 640.753906 C 1100.925781 637.875 1098.085938 635.050781 1095.195312 632.285156 C 1092.300781 629.519531 1089.351562 626.8125 1086.351562 624.164062 C 1083.347656 621.515625 1080.292969 618.929688 1077.1875 616.40625 C 1074.082031 613.882812 1070.925781 611.421875 1067.71875 609.023438 C 1064.515625 606.625 1061.261719 604.292969 1057.964844 602.027344 C 1054.664062 599.757812 1051.320312 597.558594 1047.933594 595.425781 C 1044.546875 593.292969 1041.117188 591.230469 1037.648438 589.238281 C 1034.179688 587.242188 1030.667969 585.316406 1027.121094 583.464844 C 1023.574219 581.609375 1019.992188 579.828125 1016.371094 578.121094 C 1012.753906 576.410156 1009.101562 574.773438 1005.417969 573.210938 C 1001.730469 571.648438 998.015625 570.160156 994.273438 568.75 C 990.527344 567.335938 986.757812 566 982.957031 564.738281 C 979.160156 563.476562 975.335938 562.292969 971.492188 561.183594 C 967.644531 560.074219 963.78125 559.046875 959.890625 558.09375 C 956.003906 557.140625 952.101562 556.265625 948.175781 555.472656 C 944.253906 554.675781 940.316406 553.960938 936.367188 553.324219 C 932.414062 552.6875 928.453125 552.128906 924.480469 551.652344 C 917.226562 551.652344 909.972656 551.652344 902.71875 551.652344 C 894.746094 534.375 885.195312 518.015625 874.074219 502.578125 C 862.949219 487.140625 850.453125 472.90625 836.585938 459.878906 C 833.429688 456.953125 830.210938 454.097656 826.933594 451.3125 C 823.65625 448.527344 820.316406 445.8125 816.921875 443.171875 C 813.523438 440.53125 810.074219 437.964844 806.566406 435.472656 C 803.058594 432.980469 799.5 430.5625 795.890625 428.226562 C 792.277344 425.886719 788.617188 423.628906 784.910156 421.449219 C 781.199219 419.265625 777.445312 417.167969 773.644531 415.152344 C 769.847656 413.132812 766.003906 411.199219 762.121094 409.34375 C 758.238281 407.492188 754.316406 405.726562 750.359375 404.042969 C 746.398438 402.363281 742.40625 400.765625 738.375 399.257812 C 734.347656 397.746094 730.289062 396.324219 726.199219 394.988281 C 722.109375 393.65625 717.992188 392.410156 713.847656 391.253906 C 709.707031 390.097656 705.539062 389.03125 701.347656 388.054688 C 697.160156 387.078125 692.949219 386.195312 688.722656 385.398438 C 684.496094 384.605469 680.25 383.902344 675.992188 383.292969 C 671.734375 382.679688 667.464844 382.160156 663.183594 381.734375 C 658.90625 381.308594 654.617188 380.976562 650.320312 380.734375 C 646.027344 380.492188 641.730469 380.347656 637.425781 380.289062 C 633.125 380.234375 628.824219 380.273438 624.527344 380.402344 C 620.226562 380.535156 615.929688 380.757812 611.640625 381.074219 C 607.351562 381.390625 603.070312 381.800781 598.796875 382.300781 C 594.523438 382.800781 590.265625 383.394531 586.019531 384.082031 C 581.769531 384.765625 577.539062 385.542969 573.328125 386.414062 C 569.113281 387.28125 564.921875 388.242188 560.75 389.289062 C 556.578125 390.339844 552.429688 391.480469 548.308594 392.707031 C 544.183594 393.9375 540.089844 395.253906 536.027344 396.660156 C 531.960938 398.066406 527.925781 399.558594 523.925781 401.140625 C 519.921875 402.71875 515.957031 404.386719 512.027344 406.136719 C 508.101562 407.890625 504.210938 409.726562 500.359375 411.644531 C 496.511719 413.5625 492.703125 415.566406 488.941406 417.652344 C 485.175781 419.734375 481.460938 421.898438 477.789062 424.144531 C 474.121094 426.390625 470.5 428.714844 466.929688 431.113281 C 463.359375 433.515625 459.84375 435.992188 456.382812 438.546875 C 452.917969 441.101562 449.511719 443.726562 446.164062 446.429688 C 442.8125 449.128906 439.523438 451.902344 436.296875 454.746094 C 433.066406 457.585938 429.898438 460.5 426.796875 463.476562 C 423.691406 466.457031 420.652344 469.503906 417.679688 472.613281 C 414.710938 475.726562 411.804688 478.898438 408.96875 482.136719 C 406.136719 485.375 403.371094 488.667969 400.679688 492.027344 C 397.984375 495.382812 395.367188 498.792969 392.820312 502.265625 C 390.277344 505.734375 387.804688 509.253906 385.414062 512.832031 C 383.019531 516.40625 380.707031 520.035156 378.46875 523.710938 C 376.230469 527.386719 374.074219 531.109375 372 534.878906 C 369.925781 538.648438 367.929688 542.460938 366.019531 546.316406 C 364.109375 550.171875 362.28125 554.066406 360.539062 558 C 358.796875 561.933594 357.136719 565.90625 355.566406 569.910156 C 353.996094 573.917969 352.511719 577.957031 351.113281 582.027344 C 349.71875 586.097656 348.410156 590.195312 347.1875 594.324219 C 345.96875 598.449219 344.839844 602.601562 343.796875 606.777344 C 342.757812 610.953125 341.808594 615.148438 340.949219 619.363281 C 340.085938 623.582031 339.320312 627.816406 338.644531 632.066406 C 337.964844 636.316406 337.382812 640.578125 336.890625 644.851562 C 336.398438 649.128906 335.996094 653.414062 335.691406 657.703125 C 335.382812 661.996094 335.167969 666.292969 335.046875 670.597656 C 334.921875 674.898438 334.894531 679.199219 334.957031 683.503906 C 335.023438 687.808594 335.179688 692.105469 335.429688 696.402344 C 335.679688 700.699219 336.019531 704.988281 336.457031 709.269531 C 336.890625 713.550781 337.417969 717.820312 338.035156 722.078125 C 338.65625 726.339844 339.367188 730.582031 340.171875 734.808594 C 340.972656 739.039062 341.867188 743.246094 342.851562 747.4375 C 343.835938 751.625 344.910156 755.792969 346.074219 759.933594 C 347.238281 764.078125 348.492188 768.191406 349.832031 772.28125 C 351.175781 776.371094 352.605469 780.429688 354.121094 784.457031 C 355.640625 788.484375 357.242188 792.476562 358.933594 796.433594 C 360.621094 800.390625 362.398438 804.308594 364.257812 808.191406 L 345.054688 883.316406 C 344.703125 884.707031 344.390625 886.109375 344.117188 887.515625 C 343.84375 888.925781 343.613281 890.34375 343.421875 891.765625 C 343.234375 893.1875 343.082031 894.617188 342.972656 896.046875 C 342.867188 897.480469 342.800781 898.910156 342.773438 900.347656 C 342.746094 901.78125 342.761719 903.21875 342.820312 904.652344 C 342.875 906.085938 342.972656 907.519531 343.113281 908.945312 C 343.253906 910.375 343.433594 911.800781 343.65625 913.21875 C 343.875 914.636719 344.136719 916.046875 344.441406 917.449219 C 344.742188 918.851562 345.085938 920.246094 345.46875 921.628906 C 345.851562 923.011719 346.273438 924.386719 346.738281 925.742188 C 347.199219 927.101562 347.699219 928.449219 348.238281 929.777344 C 348.777344 931.109375 349.355469 932.421875 349.972656 933.71875 C 350.585938 935.015625 351.238281 936.292969 351.925781 937.554688 C 352.617188 938.8125 353.339844 940.050781 354.101562 941.269531 C 354.859375 942.484375 355.65625 943.679688 356.484375 944.851562 C 357.3125 946.023438 358.175781 947.171875 359.070312 948.292969 C 359.964844 949.414062 360.894531 950.511719 361.851562 951.578125 C 362.808594 952.648438 363.796875 953.6875 364.816406 954.699219 C 365.832031 955.710938 366.878906 956.691406 367.957031 957.644531 C 369.03125 958.59375 370.132812 959.511719 371.257812 960.402344 C 372.386719 961.289062 373.539062 962.144531 374.714844 962.964844 C 375.894531 963.785156 377.09375 964.570312 378.316406 965.324219 C 379.539062 966.074219 380.78125 966.792969 382.042969 967.472656 C 383.308594 968.152344 384.589844 968.796875 385.890625 969.402344 C 387.191406 970.007812 388.507812 970.578125 389.839844 971.109375 C 391.175781 971.636719 392.523438 972.128906 393.882812 972.582031 C 395.246094 973.035156 396.621094 973.449219 398.003906 973.820312 C 399.390625 974.195312 400.785156 974.527344 402.191406 974.820312 C 403.59375 975.113281 405.007812 975.367188 406.425781 975.578125 C 407.847656 975.789062 409.269531 975.960938 410.699219 976.089844 C 412.128906 976.21875 413.558594 976.304688 414.996094 976.351562 C 416.429688 976.398438 417.863281 976.40625 419.296875 976.371094 L 620.6875 976.371094 C 622.28125 979.5625 623.933594 982.730469 625.636719 985.867188 C 627.339844 989.003906 629.097656 992.113281 630.910156 995.1875 C 632.722656 998.265625 634.589844 1001.308594 636.507812 1004.320312 C 638.425781 1007.332031 640.394531 1010.308594 642.414062 1013.253906 C 644.4375 1016.195312 646.507812 1019.101562 648.628906 1021.972656 C 650.75 1024.84375 652.921875 1027.679688 655.144531 1030.476562 C 657.363281 1033.269531 659.632812 1036.027344 661.949219 1038.742188 C 664.265625 1041.460938 666.625 1044.136719 669.035156 1046.773438 C 671.445312 1049.40625 673.898438 1052 676.394531 1054.550781 C 678.894531 1057.097656 681.4375 1059.605469 684.023438 1062.066406 C 686.609375 1064.527344 689.238281 1066.945312 691.90625 1069.3125 C 694.574219 1071.683594 697.285156 1074.007812 700.035156 1076.285156 C 702.785156 1078.558594 705.574219 1080.789062 708.402344 1082.96875 C 711.230469 1085.148438 714.09375 1087.277344 716.996094 1089.355469 C 719.898438 1091.4375 722.832031 1093.464844 725.804688 1095.441406 C 728.777344 1097.421875 731.78125 1099.347656 734.820312 1101.21875 C 737.859375 1103.09375 740.929688 1104.914062 744.03125 1106.679688 C 747.132812 1108.449219 750.265625 1110.160156 753.425781 1111.820312 C 756.585938 1113.476562 759.777344 1115.078125 762.992188 1116.628906 C 766.210938 1118.175781 769.453125 1119.664062 772.71875 1121.101562 C 775.988281 1122.535156 779.28125 1123.914062 782.597656 1125.234375 C 785.914062 1126.554688 789.253906 1127.816406 792.613281 1129.019531 C 795.972656 1130.226562 799.351562 1131.371094 802.753906 1132.457031 C 806.152344 1133.546875 809.570312 1134.574219 813.003906 1135.542969 C 816.441406 1136.511719 819.890625 1137.417969 823.359375 1138.269531 C 826.828125 1139.117188 830.308594 1139.90625 833.800781 1140.632812 C 837.296875 1141.359375 840.800781 1142.027344 844.320312 1142.632812 C 847.835938 1143.238281 851.363281 1143.785156 854.902344 1144.269531 C 858.4375 1144.753906 861.980469 1145.175781 865.53125 1145.535156 C 869.082031 1145.894531 872.640625 1146.195312 876.199219 1146.429688 C 879.761719 1146.667969 883.328125 1146.84375 886.894531 1146.957031 C 890.460938 1147.070312 894.03125 1147.121094 897.597656 1147.109375 L 1101.976562 1147.109375 C 1103.394531 1147.113281 1104.808594 1147.074219 1106.222656 1147 C 1107.640625 1146.921875 1109.050781 1146.804688 1110.457031 1146.644531 C 1111.867188 1146.488281 1113.269531 1146.289062 1114.664062 1146.050781 C 1116.0625 1145.8125 1117.449219 1145.535156 1118.832031 1145.21875 C 1120.210938 1144.902344 1121.582031 1144.546875 1122.945312 1144.148438 C 1124.304688 1143.753906 1125.652344 1143.320312 1126.988281 1142.851562 C 1128.324219 1142.378906 1129.648438 1141.867188 1130.953125 1141.320312 C 1132.261719 1140.773438 1133.550781 1140.191406 1134.824219 1139.570312 C 1136.097656 1138.949219 1137.355469 1138.292969 1138.589844 1137.601562 C 1139.828125 1136.910156 1141.042969 1136.183594 1142.238281 1135.421875 C 1143.433594 1134.660156 1144.605469 1133.863281 1145.757812 1133.035156 C 1146.90625 1132.207031 1148.03125 1131.347656 1149.132812 1130.457031 C 1150.234375 1129.5625 1151.308594 1128.640625 1152.355469 1127.6875 C 1153.40625 1126.734375 1154.425781 1125.75 1155.417969 1124.738281 C 1156.410156 1123.726562 1157.375 1122.691406 1158.308594 1121.625 C 1159.238281 1120.558594 1160.140625 1119.464844 1161.011719 1118.347656 C 1161.886719 1117.230469 1162.722656 1116.085938 1163.53125 1114.921875 C 1164.335938 1113.757812 1165.109375 1112.570312 1165.847656 1111.359375 C 1166.585938 1110.148438 1167.289062 1108.921875 1167.960938 1107.671875 C 1168.628906 1106.421875 1169.261719 1105.152344 1169.855469 1103.867188 C 1170.453125 1102.582031 1171.011719 1101.28125 1171.535156 1099.964844 C 1172.058594 1098.644531 1172.542969 1097.316406 1172.988281 1095.96875 C 1173.4375 1094.625 1173.84375 1093.269531 1174.214844 1091.898438 C 1174.585938 1090.53125 1174.914062 1089.152344 1175.207031 1087.765625 C 1175.496094 1086.378906 1175.75 1084.984375 1175.960938 1083.582031 C 1176.171875 1082.179688 1176.34375 1080.773438 1176.476562 1079.363281 C 1176.609375 1077.953125 1176.699219 1076.539062 1176.75 1075.121094 C 1176.804688 1073.707031 1176.8125 1072.289062 1176.785156 1070.871094 C 1176.753906 1069.453125 1176.6875 1068.039062 1176.578125 1066.625 C 1176.464844 1065.214844 1176.316406 1063.804688 1176.125 1062.398438 C 1175.9375 1060.996094 1175.707031 1059.597656 1175.4375 1058.203125 C 1175.167969 1056.8125 1174.859375 1055.429688 1174.511719 1054.058594 Z M 446.605469 782.152344 C 443.648438 776.886719 440.921875 771.503906 438.425781 766.003906 C 435.925781 760.503906 433.664062 754.910156 431.640625 749.21875 C 429.617188 743.53125 427.839844 737.761719 426.304688 731.921875 C 424.773438 726.078125 423.488281 720.183594 422.453125 714.234375 C 421.421875 708.28125 420.640625 702.296875 420.113281 696.28125 C 419.589844 690.265625 419.320312 684.234375 419.304688 678.195312 C 419.289062 672.15625 419.53125 666.125 420.03125 660.105469 C 420.527344 654.089844 421.277344 648.101562 422.285156 642.144531 C 423.078125 637.417969 424.027344 632.726562 425.136719 628.0625 C 426.246094 623.402344 427.511719 618.78125 428.929688 614.207031 C 430.351562 609.628906 431.921875 605.105469 433.648438 600.632812 C 435.371094 596.164062 437.246094 591.753906 439.265625 587.410156 C 441.289062 583.066406 443.453125 578.796875 445.761719 574.597656 C 448.070312 570.398438 450.519531 566.28125 453.105469 562.246094 C 455.691406 558.214844 458.410156 554.273438 461.261719 550.421875 C 464.113281 546.570312 467.089844 542.820312 470.195312 539.171875 C 473.300781 535.523438 476.523438 531.980469 479.867188 528.546875 C 483.207031 525.117188 486.664062 521.800781 490.226562 518.597656 C 493.792969 515.398438 497.464844 512.324219 501.234375 509.371094 C 505.007812 506.417969 508.878906 503.597656 512.839844 500.902344 C 516.804688 498.210938 520.851562 495.65625 524.988281 493.238281 C 529.121094 490.820312 533.332031 488.542969 537.621094 486.40625 C 541.910156 484.269531 546.265625 482.28125 550.6875 480.441406 C 555.109375 478.597656 559.589844 476.910156 564.125 475.367188 C 568.660156 473.828125 573.246094 472.445312 577.875 471.210938 C 582.503906 469.980469 587.167969 468.90625 591.871094 467.992188 C 596.570312 467.074219 601.300781 466.316406 606.050781 465.71875 C 610.804688 465.121094 615.570312 464.683594 620.355469 464.40625 C 625.136719 464.128906 629.921875 464.015625 634.710938 464.058594 C 639.503906 464.105469 644.285156 464.3125 649.0625 464.679688 C 653.835938 465.046875 658.59375 465.578125 663.335938 466.265625 C 668.078125 466.953125 672.789062 467.800781 677.472656 468.808594 C 682.15625 469.8125 686.800781 470.976562 691.402344 472.296875 C 696.007812 473.613281 700.566406 475.085938 705.070312 476.714844 C 709.578125 478.339844 714.023438 480.117188 718.410156 482.042969 C 722.796875 483.96875 727.113281 486.039062 731.359375 488.253906 C 735.605469 490.472656 739.773438 492.828125 743.859375 495.324219 C 747.949219 497.824219 751.949219 500.457031 755.859375 503.222656 C 759.769531 505.988281 763.585938 508.886719 767.300781 511.910156 C 771.015625 514.933594 774.625 518.078125 778.128906 521.347656 C 780.96875 523.984375 783.734375 526.699219 786.421875 529.488281 C 789.113281 532.277344 791.726562 535.136719 794.257812 538.070312 C 796.792969 541 799.246094 544 801.617188 547.066406 C 803.988281 550.128906 806.273438 553.257812 808.476562 556.449219 C 810.675781 559.636719 812.789062 562.886719 814.8125 566.191406 C 816.835938 569.496094 818.769531 572.855469 820.609375 576.265625 C 822.449219 579.675781 824.199219 583.132812 825.851562 586.636719 C 827.503906 590.144531 829.058594 593.691406 830.519531 597.28125 C 831.976562 600.875 833.339844 604.5 834.601562 608.164062 C 835.863281 611.828125 837.023438 615.527344 838.085938 619.253906 C 839.144531 622.980469 840.101562 626.734375 840.960938 630.515625 C 841.816406 634.296875 842.566406 638.097656 843.21875 641.917969 C 843.867188 645.738281 844.410156 649.574219 844.851562 653.425781 C 845.292969 657.277344 845.628906 661.136719 845.855469 665.007812 C 846.085938 668.875 846.210938 672.75 846.230469 676.625 C 846.25 680.5 846.164062 684.375 845.972656 688.246094 C 845.699219 691.6875 845.34375 695.117188 844.910156 698.542969 C 844.472656 701.964844 843.957031 705.378906 843.363281 708.777344 C 842.765625 712.179688 842.089844 715.5625 841.335938 718.929688 C 840.582031 722.300781 839.75 725.648438 838.835938 728.976562 C 837.925781 732.304688 836.9375 735.609375 835.867188 738.894531 C 834.800781 742.175781 833.65625 745.429688 832.4375 748.660156 C 831.21875 751.890625 829.921875 755.085938 828.550781 758.253906 C 827.179688 761.421875 825.734375 764.554688 824.21875 767.65625 C 822.699219 770.753906 821.109375 773.816406 819.449219 776.84375 C 817.789062 779.867188 816.054688 782.851562 814.253906 785.796875 C 812.453125 788.738281 810.582031 791.640625 808.644531 794.496094 C 806.703125 797.351562 804.699219 800.160156 802.628906 802.921875 C 800.558594 805.679688 798.425781 808.390625 796.226562 811.054688 C 794.03125 813.714844 791.773438 816.320312 789.453125 818.875 C 787.132812 821.433594 784.753906 823.929688 782.316406 826.375 C 779.878906 828.816406 777.382812 831.199219 774.832031 833.527344 C 772.285156 835.851562 769.679688 838.117188 767.023438 840.320312 C 764.367188 842.523438 761.664062 844.660156 758.90625 846.738281 C 756.148438 848.8125 753.34375 850.824219 750.496094 852.765625 C 747.644531 854.710938 744.75 856.585938 741.808594 858.394531 C 738.871094 860.203125 735.890625 861.941406 732.867188 863.605469 C 729.847656 865.273438 726.789062 866.871094 723.695312 868.394531 C 720.597656 869.917969 717.46875 871.367188 714.304688 872.746094 C 711.140625 874.121094 707.945312 875.421875 704.71875 876.648438 C 701.496094 877.875 698.242188 879.023438 694.964844 880.097656 C 691.683594 881.171875 688.382812 882.167969 685.054688 883.085938 C 681.730469 884.003906 678.382812 884.84375 675.019531 885.601562 C 671.652344 886.363281 668.269531 887.046875 664.875 887.648438 C 661.476562 888.25 658.066406 888.769531 654.644531 889.210938 C 651.222656 889.652344 647.792969 890.011719 644.351562 890.292969 C 640.914062 890.574219 637.46875 890.769531 634.023438 890.890625 C 630.574219 891.007812 627.125 891.042969 623.675781 891 L 431.246094 891 L 449.589844 818.433594 C 450.695312 815.488281 451.460938 812.457031 451.894531 809.339844 C 452.328125 806.222656 452.417969 803.09375 452.15625 799.957031 C 451.898438 796.824219 451.300781 793.753906 450.367188 790.75 C 449.429688 787.746094 448.175781 784.878906 446.605469 782.152344 Z M 1071.683594 987.894531 L 1090.03125 1061.738281 L 897.597656 1061.738281 C 893.042969 1061.757812 888.488281 1061.632812 883.9375 1061.371094 C 879.390625 1061.109375 874.851562 1060.710938 870.328125 1060.171875 C 865.800781 1059.636719 861.296875 1058.960938 856.8125 1058.148438 C 852.328125 1057.335938 847.871094 1056.386719 843.445312 1055.304688 C 839.019531 1054.21875 834.628906 1053.003906 830.277344 1051.652344 C 825.925781 1050.300781 821.617188 1048.816406 817.355469 1047.203125 C 813.09375 1045.589844 808.886719 1043.847656 804.730469 1041.976562 C 800.574219 1040.105469 796.476562 1038.113281 792.441406 1035.992188 C 788.410156 1033.871094 784.441406 1031.632812 780.542969 1029.269531 C 776.644531 1026.90625 772.824219 1024.429688 769.074219 1021.835938 C 765.328125 1019.242188 761.664062 1016.535156 758.082031 1013.714844 C 754.5 1010.898438 751.007812 1007.972656 747.601562 1004.941406 C 744.195312 1001.914062 740.886719 998.78125 737.675781 995.546875 C 734.460938 992.316406 731.347656 988.988281 728.335938 985.566406 C 725.328125 982.144531 722.421875 978.632812 719.625 975.035156 C 716.828125 971.433594 714.144531 967.753906 711.570312 963.992188 C 715.316406 962.96875 719.046875 961.875 722.75 960.710938 C 726.457031 959.542969 730.140625 958.304688 733.796875 956.992188 C 737.457031 955.683594 741.085938 954.300781 744.691406 952.851562 C 748.292969 951.398438 751.867188 949.875 755.414062 948.285156 C 758.957031 946.691406 762.46875 945.03125 765.949219 943.304688 C 769.429688 941.574219 772.875 939.78125 776.285156 937.917969 C 779.691406 936.054688 783.066406 934.125 786.398438 932.128906 C 789.734375 930.132812 793.027344 928.074219 796.28125 925.953125 C 799.535156 923.828125 802.75 921.640625 805.917969 919.394531 C 809.085938 917.144531 812.210938 914.835938 815.289062 912.464844 C 818.367188 910.09375 821.398438 907.664062 824.382812 905.171875 C 827.367188 902.683594 830.300781 900.136719 833.1875 897.535156 C 836.070312 894.929688 838.902344 892.269531 841.683594 889.558594 C 844.464844 886.84375 847.191406 884.074219 849.863281 881.253906 C 852.539062 878.433594 855.15625 875.5625 857.714844 872.636719 C 860.277344 869.714844 862.78125 866.742188 865.222656 863.722656 C 867.667969 860.703125 870.054688 857.636719 872.378906 854.519531 C 874.707031 851.40625 876.96875 848.25 879.171875 845.046875 C 881.375 841.84375 883.511719 838.601562 885.585938 835.316406 C 887.664062 832.03125 889.675781 828.703125 891.621094 825.339844 C 893.566406 821.976562 895.445312 818.574219 897.257812 815.136719 C 899.070312 811.699219 900.816406 808.226562 902.496094 804.722656 C 904.171875 801.21875 905.78125 797.679688 907.320312 794.109375 C 908.863281 790.542969 910.332031 786.945312 911.730469 783.320312 C 913.128906 779.695312 914.457031 776.042969 915.714844 772.363281 C 916.972656 768.6875 918.15625 764.984375 919.269531 761.261719 C 920.382812 757.539062 921.421875 753.792969 922.390625 750.027344 C 923.355469 746.265625 924.25 742.480469 925.066406 738.683594 C 925.886719 734.882812 926.632812 731.070312 927.300781 727.238281 C 927.972656 723.410156 928.566406 719.570312 929.089844 715.71875 C 929.609375 711.867188 930.054688 708.007812 930.421875 704.136719 C 930.792969 700.269531 931.089844 696.394531 931.308594 692.511719 C 932.171875 674.644531 931.316406 656.859375 928.746094 639.15625 C 931.398438 639.660156 934.042969 640.210938 936.671875 640.8125 C 939.304688 641.414062 941.925781 642.066406 944.53125 642.765625 C 947.136719 643.46875 949.730469 644.21875 952.308594 645.019531 C 954.886719 645.816406 957.449219 646.667969 959.996094 647.5625 C 962.542969 648.460938 965.070312 649.40625 967.582031 650.398438 C 970.089844 651.390625 972.582031 652.433594 975.050781 653.519531 C 977.523438 654.605469 979.972656 655.742188 982.402344 656.921875 C 984.828125 658.101562 987.234375 659.328125 989.613281 660.601562 C 991.996094 661.871094 994.351562 663.191406 996.683594 664.550781 C 999.015625 665.914062 1001.320312 667.316406 1003.597656 668.765625 C 1005.875 670.214844 1008.125 671.707031 1010.347656 673.242188 C 1012.570312 674.777344 1014.761719 676.351562 1016.921875 677.96875 C 1019.082031 679.585938 1021.214844 681.246094 1023.3125 682.945312 C 1025.410156 684.644531 1027.476562 686.378906 1029.507812 688.15625 C 1031.542969 689.933594 1033.539062 691.75 1035.503906 693.601562 C 1037.46875 695.457031 1039.394531 697.34375 1041.289062 699.269531 C 1043.179688 701.195312 1045.035156 703.160156 1046.855469 705.15625 C 1048.671875 707.152344 1050.449219 709.183594 1052.191406 711.246094 C 1053.933594 713.308594 1055.632812 715.40625 1057.292969 717.535156 C 1058.957031 719.664062 1060.574219 721.824219 1062.15625 724.015625 C 1063.734375 726.203125 1065.269531 728.421875 1066.765625 730.671875 C 1068.261719 732.921875 1069.714844 735.199219 1071.121094 737.5 C 1072.53125 739.804688 1073.894531 742.132812 1075.214844 744.488281 C 1076.535156 746.847656 1077.8125 749.226562 1079.039062 751.628906 C 1080.269531 754.035156 1081.453125 756.460938 1082.59375 758.910156 C 1083.730469 761.359375 1084.820312 763.828125 1085.867188 766.316406 C 1086.910156 768.808594 1087.90625 771.316406 1088.855469 773.847656 C 1089.804688 776.375 1090.703125 778.917969 1091.558594 781.480469 C 1092.410156 784.042969 1093.214844 786.621094 1093.96875 789.214844 C 1094.722656 791.808594 1095.425781 794.414062 1096.082031 797.035156 C 1096.738281 799.65625 1097.34375 802.285156 1097.898438 804.929688 C 1098.457031 807.570312 1098.960938 810.222656 1099.417969 812.886719 C 1100.421875 818.839844 1101.171875 824.828125 1101.671875 830.847656 C 1102.167969 836.867188 1102.410156 842.898438 1102.394531 848.9375 C 1102.382812 854.976562 1102.113281 861.003906 1101.585938 867.023438 C 1101.058594 873.039062 1100.28125 879.023438 1099.246094 884.972656 C 1098.210938 890.925781 1096.929688 896.820312 1095.394531 902.664062 C 1093.859375 908.503906 1092.082031 914.269531 1090.058594 919.960938 C 1088.035156 925.652344 1085.773438 931.246094 1083.277344 936.746094 C 1080.777344 942.242188 1078.050781 947.625 1075.097656 952.894531 C 1073.585938 955.519531 1072.367188 958.28125 1071.445312 961.167969 C 1070.523438 964.054688 1069.914062 967.007812 1069.617188 970.027344 C 1069.324219 973.042969 1069.351562 976.058594 1069.699219 979.070312 C 1070.046875 982.082031 1070.707031 985.023438 1071.683594 987.894531 Z M 589.96875 677.574219 C 589.96875 678.972656 589.898438 680.367188 589.761719 681.757812 C 589.625 683.148438 589.417969 684.53125 589.148438 685.902344 C 588.875 687.273438 588.535156 688.625 588.128906 689.964844 C 587.722656 691.300781 587.253906 692.617188 586.71875 693.910156 C 586.183594 695.199219 585.585938 696.460938 584.929688 697.695312 C 584.269531 698.929688 583.550781 700.125 582.777344 701.289062 C 582 702.449219 581.167969 703.570312 580.28125 704.652344 C 579.394531 705.734375 578.457031 706.769531 577.46875 707.757812 C 576.480469 708.746094 575.449219 709.683594 574.367188 710.570312 C 573.289062 711.457031 572.167969 712.289062 571.003906 713.066406 C 569.84375 713.839844 568.644531 714.558594 567.414062 715.21875 C 566.179688 715.878906 564.917969 716.472656 563.628906 717.007812 C 562.335938 717.542969 561.023438 718.015625 559.683594 718.421875 C 558.347656 718.828125 556.996094 719.164062 555.625 719.4375 C 554.253906 719.710938 552.871094 719.917969 551.480469 720.054688 C 550.089844 720.191406 548.695312 720.257812 547.300781 720.257812 C 545.902344 720.257812 544.507812 720.191406 543.117188 720.054688 C 541.726562 719.917969 540.347656 719.710938 538.976562 719.4375 C 537.605469 719.164062 536.25 718.828125 534.914062 718.421875 C 533.578125 718.015625 532.261719 717.542969 530.972656 717.007812 C 529.679688 716.472656 528.417969 715.878906 527.1875 715.21875 C 525.953125 714.558594 524.757812 713.839844 523.59375 713.066406 C 522.433594 712.289062 521.3125 711.457031 520.230469 710.570312 C 519.152344 709.683594 518.117188 708.746094 517.128906 707.757812 C 516.140625 706.769531 515.203125 705.734375 514.316406 704.652344 C 513.429688 703.570312 512.597656 702.449219 511.824219 701.289062 C 511.046875 700.125 510.328125 698.929688 509.671875 697.695312 C 509.011719 696.460938 508.414062 695.199219 507.878906 693.910156 C 507.34375 692.617188 506.875 691.300781 506.46875 689.964844 C 506.0625 688.625 505.726562 687.273438 505.453125 685.902344 C 505.179688 684.53125 504.976562 683.148438 504.835938 681.757812 C 504.699219 680.367188 504.632812 678.972656 504.632812 677.574219 C 504.632812 676.175781 504.699219 674.78125 504.835938 673.390625 C 504.976562 672 505.179688 670.617188 505.453125 669.246094 C 505.726562 667.875 506.0625 666.519531 506.46875 665.183594 C 506.875 663.84375 507.34375 662.53125 507.878906 661.238281 C 508.414062 659.945312 509.011719 658.683594 509.671875 657.453125 C 510.328125 656.21875 511.046875 655.019531 511.824219 653.859375 C 512.597656 652.695312 513.429688 651.574219 514.316406 650.496094 C 515.203125 649.414062 516.140625 648.378906 517.128906 647.390625 C 518.117188 646.402344 519.152344 645.464844 520.230469 644.578125 C 521.3125 643.691406 522.433594 642.859375 523.59375 642.082031 C 524.757812 641.304688 525.953125 640.585938 527.1875 639.929688 C 528.417969 639.269531 529.679688 638.671875 530.972656 638.136719 C 532.261719 637.601562 533.578125 637.132812 534.914062 636.726562 C 536.25 636.320312 537.605469 635.980469 538.976562 635.707031 C 540.347656 635.4375 541.726562 635.230469 543.117188 635.09375 C 544.507812 634.957031 545.902344 634.886719 547.300781 634.886719 C 548.695312 634.886719 550.089844 634.957031 551.480469 635.09375 C 552.871094 635.230469 554.253906 635.4375 555.625 635.707031 C 556.996094 635.980469 558.347656 636.320312 559.683594 636.726562 C 561.023438 637.132812 562.335938 637.601562 563.628906 638.136719 C 564.917969 638.671875 566.179688 639.269531 567.414062 639.929688 C 568.644531 640.585938 569.84375 641.304688 571.003906 642.082031 C 572.167969 642.859375 573.289062 643.691406 574.367188 644.578125 C 575.449219 645.464844 576.480469 646.402344 577.46875 647.390625 C 578.457031 648.378906 579.394531 649.414062 580.28125 650.496094 C 581.167969 651.574219 582 652.695312 582.777344 653.859375 C 583.550781 655.019531 584.269531 656.21875 584.929688 657.453125 C 585.585938 658.683594 586.183594 659.945312 586.71875 661.238281 C 587.253906 662.53125 587.722656 663.84375 588.128906 665.183594 C 588.535156 666.519531 588.875 667.875 589.148438 669.246094 C 589.417969 670.617188 589.625 672 589.761719 673.390625 C 589.898438 674.78125 589.96875 676.175781 589.96875 677.574219 Z M 760.636719 677.574219 C 760.636719 678.972656 760.570312 680.367188 760.429688 681.757812 C 760.292969 683.148438 760.089844 684.53125 759.816406 685.902344 C 759.542969 687.273438 759.207031 688.625 758.800781 689.964844 C 758.394531 691.300781 757.925781 692.617188 757.390625 693.910156 C 756.855469 695.199219 756.257812 696.460938 755.597656 697.695312 C 754.941406 698.929688 754.222656 700.125 753.445312 701.289062 C 752.667969 702.449219 751.839844 703.570312 750.953125 704.652344 C 750.066406 705.734375 749.128906 706.769531 748.140625 707.757812 C 747.152344 708.746094 746.117188 709.683594 745.039062 710.570312 C 743.957031 711.457031 742.835938 712.289062 741.675781 713.066406 C 740.511719 713.839844 739.316406 714.558594 738.082031 715.21875 C 736.851562 715.878906 735.589844 716.472656 734.296875 717.007812 C 733.007812 717.542969 731.691406 718.015625 730.355469 718.421875 C 729.019531 718.828125 727.664062 719.164062 726.292969 719.4375 C 724.921875 719.710938 723.542969 719.917969 722.152344 720.054688 C 720.761719 720.191406 719.367188 720.257812 717.96875 720.257812 C 716.570312 720.257812 715.179688 720.191406 713.789062 720.054688 C 712.398438 719.917969 711.015625 719.710938 709.644531 719.4375 C 708.273438 719.164062 706.921875 718.828125 705.582031 718.421875 C 704.246094 718.015625 702.933594 717.542969 701.640625 717.007812 C 700.351562 716.472656 699.089844 715.878906 697.855469 715.21875 C 696.625 714.558594 695.425781 713.839844 694.265625 713.066406 C 693.101562 712.289062 691.980469 711.457031 690.902344 710.570312 C 689.820312 709.683594 688.789062 708.746094 687.800781 707.757812 C 686.8125 706.769531 685.875 705.734375 684.988281 704.652344 C 684.101562 703.570312 683.269531 702.449219 682.492188 701.289062 C 681.714844 700.125 681 698.929688 680.339844 697.695312 C 679.679688 696.460938 679.085938 695.199219 678.550781 693.910156 C 678.015625 692.617188 677.546875 691.300781 677.140625 689.964844 C 676.734375 688.625 676.394531 687.273438 676.121094 685.902344 C 675.847656 684.53125 675.644531 683.148438 675.507812 681.757812 C 675.371094 680.367188 675.300781 678.972656 675.300781 677.574219 C 675.300781 676.175781 675.371094 674.78125 675.507812 673.390625 C 675.644531 672 675.847656 670.617188 676.121094 669.246094 C 676.394531 667.875 676.734375 666.519531 677.140625 665.183594 C 677.546875 663.84375 678.015625 662.53125 678.550781 661.238281 C 679.085938 659.945312 679.679688 658.683594 680.339844 657.453125 C 681 656.21875 681.714844 655.019531 682.492188 653.859375 C 683.269531 652.695312 684.101562 651.574219 684.988281 650.496094 C 685.875 649.414062 686.8125 648.378906 687.800781 647.390625 C 688.789062 646.402344 689.820312 645.464844 690.902344 644.578125 C 691.980469 643.691406 693.101562 642.859375 694.265625 642.082031 C 695.425781 641.304688 696.625 640.585938 697.855469 639.929688 C 699.089844 639.269531 700.351562 638.671875 701.640625 638.136719 C 702.933594 637.601562 704.246094 637.132812 705.582031 636.726562 C 706.921875 636.320312 708.273438 635.980469 709.644531 635.707031 C 711.015625 635.4375 712.398438 635.230469 713.789062 635.09375 C 715.179688 634.957031 716.570312 634.886719 717.96875 634.886719 C 719.367188 634.886719 720.761719 634.957031 722.152344 635.09375 C 723.542969 635.230469 724.921875 635.4375 726.292969 635.707031 C 727.664062 635.980469 729.019531 636.320312 730.355469 636.726562 C 731.691406 637.132812 733.007812 637.601562 734.296875 638.136719 C 735.589844 638.671875 736.851562 639.269531 738.082031 639.929688 C 739.316406 640.585938 740.511719 641.304688 741.675781 642.082031 C 742.835938 642.859375 743.957031 643.691406 745.039062 644.578125 C 746.117188 645.464844 747.152344 646.402344 748.140625 647.390625 C 749.128906 648.378906 750.066406 649.414062 750.953125 650.496094 C 751.839844 651.574219 752.667969 652.695312 753.445312 653.859375 C 754.222656 655.019531 754.941406 656.21875 755.597656 657.453125 C 756.257812 658.683594 756.855469 659.945312 757.390625 661.238281 C 757.925781 662.53125 758.394531 663.84375 758.800781 665.183594 C 759.207031 666.519531 759.542969 667.875 759.816406 669.246094 C 760.089844 670.617188 760.292969 672 760.429688 673.390625 C 760.570312 674.78125 760.636719 676.175781 760.636719 677.574219 Z M 1016.640625 848.3125 C 1016.640625 849.710938 1016.574219 851.105469 1016.4375 852.5 C 1016.300781 853.890625 1016.09375 855.269531 1015.820312 856.640625 C 1015.550781 858.011719 1015.210938 859.367188 1014.804688 860.707031 C 1014.398438 862.042969 1013.929688 863.359375 1013.394531 864.648438 C 1012.859375 865.941406 1012.261719 867.203125 1011.605469 868.4375 C 1010.945312 869.667969 1010.226562 870.867188 1009.449219 872.027344 C 1008.675781 873.191406 1007.84375 874.3125 1006.957031 875.394531 C 1006.070312 876.472656 1005.132812 877.507812 1004.144531 878.496094 C 1003.15625 879.484375 1002.121094 880.421875 1001.042969 881.308594 C 999.960938 882.195312 998.839844 883.027344 997.679688 883.804688 C 996.515625 884.582031 995.320312 885.300781 994.085938 885.960938 C 992.855469 886.617188 991.59375 887.214844 990.300781 887.75 C 989.011719 888.285156 987.695312 888.753906 986.359375 889.160156 C 985.023438 889.566406 983.667969 889.90625 982.296875 890.179688 C 980.929688 890.453125 979.546875 890.65625 978.15625 890.792969 C 976.765625 890.929688 975.371094 891 973.972656 891 C 972.578125 891 971.183594 890.929688 969.792969 890.792969 C 968.402344 890.65625 967.019531 890.453125 965.648438 890.179688 C 964.28125 889.90625 962.925781 889.566406 961.589844 889.160156 C 960.25 888.753906 958.9375 888.285156 957.644531 887.75 C 956.355469 887.214844 955.09375 886.617188 953.859375 885.960938 C 952.628906 885.300781 951.429688 884.582031 950.269531 883.804688 C 949.109375 883.027344 947.988281 882.195312 946.90625 881.308594 C 945.824219 880.421875 944.792969 879.484375 943.804688 878.496094 C 942.816406 877.507812 941.878906 876.472656 940.992188 875.394531 C 940.105469 874.3125 939.273438 873.191406 938.496094 872.027344 C 937.722656 870.867188 937.003906 869.667969 936.34375 868.4375 C 935.6875 867.203125 935.089844 865.941406 934.554688 864.648438 C 934.019531 863.359375 933.550781 862.042969 933.144531 860.703125 C 932.738281 859.367188 932.398438 858.011719 932.125 856.640625 C 931.855469 855.269531 931.648438 853.890625 931.511719 852.5 C 931.375 851.105469 931.308594 849.710938 931.308594 848.3125 C 931.308594 846.917969 931.375 845.523438 931.511719 844.128906 C 931.648438 842.738281 931.855469 841.359375 932.125 839.988281 C 932.398438 838.617188 932.738281 837.261719 933.144531 835.921875 C 933.550781 834.585938 934.019531 833.269531 934.554688 831.980469 C 935.089844 830.6875 935.6875 829.425781 936.34375 828.191406 C 937.003906 826.960938 937.722656 825.761719 938.496094 824.597656 C 939.273438 823.4375 940.105469 822.316406 940.992188 821.234375 C 941.878906 820.15625 942.816406 819.121094 943.804688 818.132812 C 944.792969 817.144531 945.824219 816.203125 946.90625 815.316406 C 947.988281 814.429688 949.109375 813.597656 950.269531 812.824219 C 951.429688 812.046875 952.628906 811.328125 953.859375 810.667969 C 955.09375 810.011719 956.355469 809.414062 957.644531 808.878906 C 958.9375 808.34375 960.25 807.871094 961.589844 807.46875 C 962.925781 807.0625 964.28125 806.722656 965.648438 806.449219 C 967.019531 806.175781 968.402344 805.972656 969.792969 805.835938 C 971.183594 805.699219 972.578125 805.628906 973.972656 805.628906 C 975.371094 805.628906 976.765625 805.699219 978.15625 805.835938 C 979.546875 805.972656 980.929688 806.175781 982.296875 806.449219 C 983.667969 806.722656 985.023438 807.0625 986.359375 807.46875 C 987.695312 807.871094 989.011719 808.34375 990.300781 808.878906 C 991.59375 809.414062 992.855469 810.011719 994.085938 810.667969 C 995.320312 811.328125 996.515625 812.046875 997.679688 812.824219 C 998.839844 813.597656 999.960938 814.429688 1001.042969 815.316406 C 1002.121094 816.203125 1003.15625 817.144531 1004.144531 818.132812 C 1005.132812 819.121094 1006.070312 820.15625 1006.957031 821.234375 C 1007.84375 822.316406 1008.675781 823.4375 1009.449219 824.597656 C 1010.226562 825.761719 1010.945312 826.960938 1011.605469 828.191406 C 1012.261719 829.425781 1012.859375 830.6875 1013.394531 831.980469 C 1013.929688 833.269531 1014.398438 834.585938 1014.804688 835.921875 C 1015.210938 837.261719 1015.550781 838.617188 1015.820312 839.988281 C 1016.09375 841.359375 1016.300781 842.738281 1016.4375 844.128906 C 1016.574219 845.523438 1016.640625 846.917969 1016.640625 848.3125 Z M 1016.640625 848.3125 " fill-opacity="1" fill-rule="nonzero"/></svg>